<?xml version="1.0" encoding="utf-8"?>
<!-- Four Wheel Drive icon by Arthur Shlain from Usefulicons.com -->
<svg xmlns="http://www.w3.org/2000/svg" xmlns:xlink="http://www.w3.org/1999/xlink" xml:space="preserve" version="1.1" x="0px" y="0px" viewBox="0 0 100 100" width="400px" height="400px"><path d="M70,35L75,35C77.761,35,80,32.761,80,30L80,15C80,12.239,77.761,10,75,10L70,10C67.239,10,65,12.239,65,15L65,20L54.304,20C53.437,18.513,51.842,17.5,50,17.5S46.563,18.513,45.696,20L35,20L35,15C35,12.239,32.761,10,30,10L25,10C22.239,10,20,12.239,20,15L20,30C20,32.761,22.239,35,25,35L30,35C32.761,35,35,32.761,35,30L35,25L45.696,25C46.133,25.749,46.752,26.368,47.5,26.804L47.5,73.195C46.751,73.632,46.132,74.251,45.696,74.999L35,74.999L35,69.999C35,67.238,32.761,64.999,30,64.999L25,64.999C22.239,64.999,20,67.238,20,69.999L20,84.999C20,87.76,22.239,89.999,25,89.999L30,89.999C32.761,89.999,35,87.76,35,84.999L35,79.999L45.696,79.999C46.563,81.486,48.158,82.499,50,82.499S53.437,81.486,54.304,79.999L65,79.999L65,84.999C65,87.76,67.239,89.999,70,89.999L75,89.999C77.761,89.999,80,87.76,80,84.999L80,70C80,67.239,77.761,65,75,65L70,65C67.239,65,65,67.239,65,70L65,75L54.304,75C53.867,74.251,53.248,73.632,52.5,73.196L52.5,26.804C53.249,26.367,53.868,25.748,54.304,25L65,25L65,30C65,32.761,67.239,35,70,35Z" stroke="none"></path></svg>